<svg width="1200" height="400" viewBox="0 0 1200 400" xmlns="http://www.w3.org/2000/svg" font-family="Arial, sans-serif">
  <rect width="1200" height="400" fill="#FAFAFA" rx="16"/>
  <text x="600" y="36" text-anchor="middle" font-size="18" font-weight="600" fill="#1F4E79">Fintech AWS Data Pipeline — Arquitetura Medallion</text>
  <defs>
    <marker id="arr" viewBox="0 0 10 10" refX="8" refY="5" markerWidth="6" markerHeight="6" orient="auto-start-reverse">
      <path d="M2 1L8 5L2 9" fill="none" stroke="#888780" stroke-width="1.5" stroke-linecap="round" stroke-linejoin="round"/>
    </marker>
  </defs>

  <!-- FONTE -->
  <rect x="20" y="58" width="160" height="230" rx="14" fill="none" stroke="#B4B2A9" stroke-width="1.5" stroke-dasharray="6 3"/>
  <text x="100" y="50" text-anchor="middle" font-size="13" fill="#5F5E5A" font-weight="500">Fonte</text>
  <rect x="34" y="74" width="132" height="56" rx="8" fill="#F1EFE8" stroke="#888780" stroke-width="1"/>
  <text x="100" y="99" text-anchor="middle" font-size="13" font-weight="600" fill="#444441">Python Script</text>
  <text x="100" y="118" text-anchor="middle" font-size="11" fill="#5F5E5A">Gera dados simulados</text>
  <rect x="34" y="144" width="132" height="56" rx="8" fill="#F1EFE8" stroke="#888780" stroke-width="1"/>
  <text x="100" y="169" text-anchor="middle" font-size="13" font-weight="600" fill="#444441">CSV Local</text>
  <text x="100" y="188" text-anchor="middle" font-size="11" fill="#5F5E5A">20k clientes · 3.3M tx</text>
  <line x1="182" y1="200" x2="220" y2="200" stroke="#888780" stroke-width="2" marker-end="url(#arr)"/>

  <!-- INGESTÃO -->
  <rect x="222" y="58" width="170" height="230" rx="14" fill="none" stroke="#5DCAA5" stroke-width="1.5" stroke-dasharray="6 3"/>
  <text x="307" y="50" text-anchor="middle" font-size="13" fill="#0F6E56" font-weight="500">Ingestão</text>
  <rect x="236" y="74" width="142" height="56" rx="8" fill="#E1F5EE" stroke="#1D9E75" stroke-width="1"/>
  <text x="307" y="99" text-anchor="middle" font-size="12" font-weight="600" fill="#085041">AWS CLI + boto3</text>
  <text x="307" y="118" text-anchor="middle" font-size="11" fill="#0F6E56">Upload para S3 /raw</text>
  <rect x="236" y="144" width="142" height="56" rx="8" fill="#E1F5EE" stroke="#1D9E75" stroke-width="1"/>
  <text x="307" y="169" text-anchor="middle" font-size="12" font-weight="600" fill="#085041">AWS Lambda</text>
  <text x="307" y="188" text-anchor="middle" font-size="11" fill="#0F6E56">Trigger S3 · CSV-Parquet</text>
  <line x1="394" y1="200" x2="432" y2="200" stroke="#888780" stroke-width="2" marker-end="url(#arr)"/>

  <!-- BRONZE -->
  <rect x="434" y="58" width="160" height="230" rx="14" fill="#FFF8EE" stroke="#EF9F27" stroke-width="1.5" stroke-dasharray="6 3"/>
  <text x="514" y="50" text-anchor="middle" font-size="13" fill="#854F0B" font-weight="500">Bronze</text>
  <ellipse cx="514" cy="128" rx="48" ry="13" fill="#FAC775" stroke="#BA7517" stroke-width="1.5"/>
  <rect x="466" y="128" width="96" height="72" fill="#FAEEDA" stroke="#BA7517" stroke-width="1.5"/>
  <ellipse cx="514" cy="200" rx="48" ry="13" fill="#FAC775" stroke="#BA7517" stroke-width="1.5"/>
  <text x="514" y="162" text-anchor="middle" font-size="13" font-weight="700" fill="#633806">Bronze</text>
  <text x="514" y="182" text-anchor="middle" font-size="10" fill="#854F0B">Parquet bruto</text>
  <rect x="448" y="218" width="132" height="36" rx="6" fill="#FAEEDA" stroke="#EF9F27" stroke-width="1"/>
  <text x="514" y="241" text-anchor="middle" font-size="11" font-weight="600" fill="#633806">Glue Crawler</text>
  <rect x="448" y="262" width="132" height="36" rx="6" fill="#FAEEDA" stroke="#EF9F27" stroke-width="1"/>
  <text x="514" y="285" text-anchor="middle" font-size="11" fill="#854F0B">customers · profiles · tx</text>
  <line x1="596" y1="180" x2="634" y2="180" stroke="#888780" stroke-width="2" marker-end="url(#arr)"/>
  <text x="615" y="172" text-anchor="middle" font-size="10" fill="#5F5E5A">Glue ETL</text>

  <!-- SILVER -->
  <rect x="636" y="58" width="160" height="230" rx="14" fill="#F5F5F5" stroke="#888780" stroke-width="1.5" stroke-dasharray="6 3"/>
  <text x="716" y="50" text-anchor="middle" font-size="13" fill="#444441" font-weight="500">Silver</text>
  <ellipse cx="716" cy="128" rx="48" ry="13" fill="#D3D1C7" stroke="#5F5E5A" stroke-width="1.5"/>
  <rect x="668" y="128" width="96" height="72" fill="#F1EFE8" stroke="#5F5E5A" stroke-width="1.5"/>
  <ellipse cx="716" cy="200" rx="48" ry="13" fill="#D3D1C7" stroke="#5F5E5A" stroke-width="1.5"/>
  <text x="716" y="162" text-anchor="middle" font-size="13" font-weight="700" fill="#2C2C2A">Silver</text>
  <text x="716" y="182" text-anchor="middle" font-size="10" fill="#444441">Dado limpo</text>
  <rect x="650" y="218" width="132" height="36" rx="6" fill="#F1EFE8" stroke="#888780" stroke-width="1"/>
  <text x="716" y="241" text-anchor="middle" font-size="11" font-weight="600" fill="#444441">Visual ETL + PySpark</text>
  <rect x="650" y="262" width="132" height="36" rx="6" fill="#F1EFE8" stroke="#888780" stroke-width="1"/>
  <text x="716" y="285" text-anchor="middle" font-size="11" fill="#5F5E5A">Tipado · deduplicado</text>
  <line x1="798" y1="180" x2="836" y2="180" stroke="#888780" stroke-width="2" marker-end="url(#arr)"/>
  <text x="817" y="172" text-anchor="middle" font-size="10" fill="#5F5E5A">Glue ETL</text>

  <!-- GOLD -->
  <rect x="838" y="58" width="160" height="230" rx="14" fill="#F0EDFE" stroke="#7F77DD" stroke-width="1.5" stroke-dasharray="6 3"/>
  <text x="918" y="50" text-anchor="middle" font-size="13" fill="#3C3489" font-weight="500">Gold</text>
  <ellipse cx="918" cy="128" rx="48" ry="13" fill="#AFA9EC" stroke="#534AB7" stroke-width="1.5"/>
  <rect x="870" y="128" width="96" height="72" fill="#EEEDFE" stroke="#534AB7" stroke-width="1.5"/>
  <ellipse cx="918" cy="200" rx="48" ry="13" fill="#AFA9EC" stroke="#534AB7" stroke-width="1.5"/>
  <text x="918" y="162" text-anchor="middle" font-size="13" font-weight="700" fill="#26215C">Gold</text>
  <text x="918" y="182" text-anchor="middle" font-size="10" fill="#3C3489">Star Schema</text>
  <rect x="852" y="218" width="132" height="36" rx="6" fill="#EEEDFE" stroke="#7F77DD" stroke-width="1"/>
  <text x="918" y="241" text-anchor="middle" font-size="11" font-weight="600" fill="#3C3489">7 dims + fat_transacoes</text>
  <rect x="852" y="262" width="132" height="36" rx="6" fill="#EEEDFE" stroke="#7F77DD" stroke-width="1"/>
  <text x="918" y="285" text-anchor="middle" font-size="11" fill="#534AB7">Amazon Athena</text>
  <line x1="1000" y1="180" x2="1038" y2="180" stroke="#888780" stroke-width="2" marker-end="url(#arr)"/>

  <!-- VISUALIZAÇÃO -->
  <rect x="1040" y="58" width="140" height="230" rx="14" fill="#EBF3FB" stroke="#378ADD" stroke-width="1.5" stroke-dasharray="6 3"/>
  <text x="1110" y="50" text-anchor="middle" font-size="13" fill="#0C447C" font-weight="500">Visualização</text>
  <rect x="1054" y="74" width="112" height="56" rx="8" fill="#E6F1FB" stroke="#185FA5" stroke-width="1"/>
  <text x="1110" y="99" text-anchor="middle" font-size="12" font-weight="600" fill="#0C447C">Power BI</text>
  <text x="1110" y="118" text-anchor="middle" font-size="11" fill="#185FA5">Dashboard financeiro</text>
  <rect x="1054" y="144" width="112" height="56" rx="8" fill="#E6F1FB" stroke="#185FA5" stroke-width="1"/>
  <text x="1110" y="169" text-anchor="middle" font-size="12" font-weight="600" fill="#0C447C">Athena</text>
  <text x="1110" y="188" text-anchor="middle" font-size="11" fill="#185FA5">Queries SQL ad-hoc</text>

  <!-- RODAPÉ -->
  <rect x="20" y="308" width="1160" height="30" rx="8" fill="#F1EFE8" stroke="#B4B2A9" stroke-width="1"/>
  <text x="600" y="328" text-anchor="middle" font-size="11" fill="#444441" font-weight="500">AWS IAM · Amazon S3 · CloudWatch · Glue Data Catalog · Python 3.11</text>
  <text x="600" y="370" text-anchor="middle" font-size="12" fill="#888780">Roadmap: Step Functions · AWS Transfer Family · Terraform · CI/CD</text>
</svg>
